HIERARCHY
ROOT Hips
{
	OFFSET 0.00000 0.00000 0.00000
	CHANNELS 6 Xposition Yposition Zposition Yrotation Zrotation Xrotation 
	JOINT Lumbar
	{
		OFFSET 0 0 0
		CHANNELS 3 Zrotation Xrotation Yrotation
		JOINT Neck
		{
			OFFSET 0.00 0.2701 0.00
			CHANNELS 3 Zrotation Xrotation Yrotation
			End Site
			{
				OFFSET 0.00 0.1379 0.00
			}
		}
		JOINT RightShoulder
		{
			OFFSET 0.0119 0.2289 0.1181
			CHANNELS 3 Zrotation Xrotation Yrotation
			JOINT RightElbow
			{
				OFFSET 0.00 -0.1475 0.00
				CHANNELS 2 Zrotation Yrotation
				JOINT RightWrist
				{
					OFFSET 0.00 -0.1605 0.00
					CHANNELS 2 Zrotation Xrotation
					End Site
					{
						OFFSET 0.0040 -0.1068 0.0006
					}
				}
			}
		}
		JOINT LeftShoulder
		{
			OFFSET 0.0119 0.2289 -0.1181
			CHANNELS 3 Zrotation Xrotation Yrotation
			JOINT LeftElbow
			{
				OFFSET 0.00 -0.1475 0.00
				CHANNELS 2 Zrotation Yrotation
				JOINT LeftWrist
				{
					OFFSET 0.00 -0.1605 0.00
					CHANNELS 2 Zrotation Xrotation
					End Site
					{
						OFFSET 0.0040 -0.1068 -0.0006
					}
				}
			}
		}
	}
	JOINT RightHip
	{
		OFFSET 0.0316 -0.0424 0.0458
		CHANNELS 3 Zrotation Xrotation Yrotation
		JOINT RightKnee
		{
			OFFSET 0.00 -0.2438 0.00
			CHANNELS 1 Zrotation
			JOINT RightAnkle
			{
				OFFSET 0.00 -0.2449 0.00
				CHANNELS 3 Zrotation Xrotation Yrotation
				End Site
				{
					OFFSET 0.1237 -0.0542 0.0051
				}
			}
		}
	}
	JOINT LeftHip
	{
		OFFSET 0.0316 -0.0424 -0.0458
		CHANNELS 3 Zrotation Xrotation Yrotation
		JOINT LeftKnee
		{
			OFFSET 0.00 -0.2438 0.00
			CHANNELS 1 Zrotation
			JOINT LeftAnkle
			{
				OFFSET 0.00 -0.2449 0.00
				CHANNELS 3 Zrotation Xrotation Yrotation
				End Site
				{
					OFFSET 0.1237 -0.0542 -0.0051
				}
			}
		}
	}
}
MOTION
Frames: 17
Frame Time: 0.02
-0.92112 0.57939 -0.10578 214.77026 0 -3.67979 -58.06927 0.65755 -38.75181 -66.57755 -44.11741 35.54608 154.52871 -18.07286 47.7769 5.78691 80.42483 -1.49551 -6.17428 143.69409 -6.23037 -9.81684 9.87327 -81.08369 -5.37335 4.23886 12.05529 5.71387 0.32363 -11.73685 -6.12513 -2.52397 -10.05927 7.99254 -1.06726 -6.54275 -6.72977 -2.54267 2.43857 4.3272
-0.92174 0.57942 -0.10571 214.86166 0 -3.6692 -58.06927 0.64963 -38.69071 -66.57755 -44.1174 35.49628 154.53753 -18.06052 49.20118 5.78692 80.15356 -1.28631 -6.57648 143.78029 -6.37693 -10.08969 9.89183 -81.00432 -5.36389 4.25025 12.09348 5.72323 0.29443 -11.93633 -6.00253 -2.55231 -10.12458 8.02783 -1.06846 -6.48696 -6.88984 -2.43761 2.42246 4.20539
-0.92249 0.57949 -0.1056 214.98884 0 -3.66105 -58.06927 0.66644 -38.63274 -66.57755 -44.11741 35.43958 154.44401 -18.07573 50.86152 5.78695 79.9312 -1.07142 -6.86737 143.83947 -6.52863 -10.32985 9.91432 -80.90139 -5.35915 4.25401 12.11218 5.72946 0.20538 -12.12835 -5.87432 -2.58406 -10.16651 7.99469 -1.06467 -6.58568 -6.93404 -2.38512 2.40509 4.20428
-0.92318 0.57955 -0.10551 215.09731 0 -3.65181 -58.06927 0.66923 -38.57589 -66.57755 -44.1174 35.37345 154.37585 -18.06397 52.3622 5.78697 79.68371 -0.85558 -7.1684 143.90883 -6.66598 -10.59529 9.93464 -80.81389 -5.35251 4.26114 12.13665 5.73771 0.14378 -12.31906 -5.74938 -2.61473 -10.21734 7.99225 -1.0623 -6.61001 -7.03236 -2.3066 2.3894 4.14538
-0.92384 0.57959 -0.10542 215.21624 0 -3.64239 -58.06927 0.68313 -38.50826 -66.57755 -44.1174 35.35842 154.39545 -18.11473 54.0698 5.787 79.43713 -0.65091 -7.63818 143.98808 -6.85383 -10.82157 9.95671 -80.70629 -5.34465 4.26897 12.17507 5.74338 0.08236 -12.53119 -5.62088 -2.64367 -10.27646 7.99356 -1.06354 -6.64394 -7.12816 -2.23526 2.36892 4.09078
-0.92461 0.57966 -0.10531 215.32171 0 -3.63391 -58.06927 0.67983 -38.46361 -66.57755 -44.11741 35.23739 154.20939 -18.0417 55.40864 5.78702 79.20875 -0.42419 -7.7351 144.03961 -6.93856 -11.11796 9.97585 -80.63498 -5.34046 4.27335 12.17959 5.75378 0.00596 -12.69689 -5.49841 -2.67678 -10.31238 7.96993 -1.05613 -6.69858 -7.2005 -2.16209 2.358 4.0603
-0.92567 0.5798 -0.10512 215.38281 0 -3.62798 -58.06927 0.6251 -38.48466 -66.57755 -44.1174 34.80909 153.47022 -17.61417 55.6625 5.787 78.96653 -0.12419 -6.77613 144.02517 -6.72791 -11.63893 9.9879 -80.67008 -5.34578 4.2708 12.09342 5.77716 -0.09817 -12.72913 -5.39725 -2.72221 -10.29001 7.89524 -1.02513 -6.76039 -7.23394 -2.07183 2.37599 4.05024
-0.92684 0.57995 -0.1049 215.42891 0 -3.62285 -58.06927 0.552 -38.52829 -66.57755 -44.1174 34.2775 152.52981 -17.06197 55.54062 5.78697 78.75067 0.19492 -5.45519 143.983 -6.41494 -12.22715 9.99647 -80.74241 -5.35455 4.26486 11.97393 5.8056 -0.21518 -12.71579 -5.30189 -2.77139 -10.24512 7.79737 -0.9857 -6.84046 -7.24774 -1.97801 2.40339 4.0638
-0.92798 0.5801 -0.10469 215.48074 0 -3.61701 -58.06927 0.48592 -38.55955 -66.57755 -44.11741 33.80385 151.68809 -16.57035 55.5987 5.78695 78.55908 0.4958 -4.33485 143.95075 -6.15496 -12.76878 10.00542 -80.7975 -5.36142 4.25995 11.87088 5.83221 -0.32599 -12.72778 -5.20177 -2.81773 -10.21009 7.70909 -0.95079 -6.92179 -7.27153 -1.8856 2.42492 4.07911
-0.92905 0.58024 -0.10449 215.53807 0 -3.61266 -58.06927 0.42596 -38.5995 -66.57755 -44.1174 33.28328 150.81143 -16.0629 55.62628 5.78693 78.21992 0.83699 -3.05893 143.92866 -5.86796 -13.37592 10.01973 -80.85329 -5.36988 4.25693 11.76203 5.85653 -0.44087 -12.72051 -5.11025 -2.86893 -10.17505 7.62234 -0.91301 -6.97014 -7.28659 -1.79599 2.45263 4.04801
-0.93028 0.58039 -0.10427 215.58035 0 -3.60542 -58.06927 0.34901 -38.62707 -66.57755 -44.11741 32.8363 149.96211 -15.55879 55.62464 5.78691 78.18889 1.09896 -2.02171 143.87949 -5.6126 -13.86433 10.02181 -80.91655 -5.37576 4.24928 11.65716 5.88709 -0.54889 -12.74205 -5.00249 -2.91092 -10.136 7.52791 -0.879 -7.0869 -7.31699 -1.69886 2.47033 4.11484
-0.9319 0.58057 -0.10399 215.58104 0 -3.58937 -58.06927 0.22606 -38.61145 -66.57758 -44.11747 32.61553 149.22978 -15.09169 55.63772 5.78693 79.0458 1.13462 -1.73988 143.75998 -5.4723 -13.99668 9.99265 -80.99324 -5.37393 4.22963 11.5753 5.93175 -0.64071 -12.85925 -4.84642 -2.92594 -10.08265 7.41696 -0.85987 -7.41111 -7.39197 -1.58326 2.45289 4.47057
-0.93368 0.58075 -0.10369 215.56781 0 -3.57041 -58.06927 0.08737 -38.58324 -66.57761 -44.11754 32.47293 148.53423 -14.63297 55.63252 5.78695 80.2044 1.09031 -1.70995 143.61495 -5.36706 -14.00938 9.95099 -81.07594 -5.36929 4.20548 11.49802 5.98279 -0.72409 -13.00621 -4.67413 -2.93169 -10.02768 7.29957 -0.84449 -7.79915 -7.48397 -1.45984 2.42595 4.91927
-0.93539 0.58093 -0.10341 215.56291 0 -3.55327 -58.06927 -0.0421 -38.56302 -66.57763 -44.1176 32.29595 147.82697 -14.17161 55.63232 5.78698 81.19501 1.08455 -1.5601 143.48305 -5.24376 -14.08496 9.91395 -81.15472 -5.36577 4.18345 11.41615 6.03233 -0.80677 -13.13617 -4.51073 -2.94203 -9.97945 7.18618 -0.82573 -8.14128 -7.57064 -1.33862 2.40689 5.30844
-0.93707 0.58111 -0.10311 215.54818 0 -3.53436 -58.06927 -0.18161 -38.53392 -66.57768 -44.1177 32.11018 147.09 -13.69956 55.6333 5.787 82.31343 1.07043 -1.42025 143.34294 -5.12507 -14.12774 9.88125 -81.23973 -5.36312 4.16097 11.3435 6.07658 -0.90781 -13.27879 -4.34145 -2.95076 -9.90552 7.06759 -0.81342 -8.55277 -7.64701 -1.22241 2.37344 5.77003
-0.93885 0.5813 -0.10283 215.55188 0 -3.51806 -58.06927 -0.30284 -38.52014 -66.57768 -44.11771 31.96308 146.42815 -13.25516 55.63212 5.78702 83.24137 1.05412 -1.32447 143.21519 -5.00744 -14.20857 9.83661 -81.3128 -5.35783 4.13842 11.25342 6.13275 -0.97003 -13.40324 -4.18006 -2.96075 -9.88448 6.95837 -0.7891 -8.83815 -7.74836 -1.09473 2.36719 6.10435
-0.94086 0.5815 -0.10257 215.60083 0 -3.51279 -58.06927 -0.37724 -38.5507 -66.57756 -44.11743 31.90054 145.9506 -12.87084 55.6327 5.787 83.52941 1.0542 -1.28757 143.12013 -4.87627 -14.43167 9.76184 -81.35025 -5.347 4.11677 11.11222 6.22483 -0.91308 -13.46605 -4.04809 -2.97527 -10.0149 6.879 -0.72701 -8.72951 -7.92184 -0.93031 2.44185 6.04821
